#!OML:ASF E:\Style4\Style4.ASF
:FULLY-SPECIFIED
:DEGREES
1337
root 1.53264 18.099 -0.915786 5.62007 -9.51503 2.00594
lowerback 10.3148 2.82815 1.62613
upperback 7.70815 3.77728 6.19509
thorax 1.96488 1.79036 5.2303
lowerneck 0.131769 -14.0043 -4.6024
upperneck -5.09014 -18.7346 2.41487
head -0.950848 -9.35472 1.52174
rclavicle -2.8625e-014 4.77083e-015
rhumerus 58.9347 21.073 -61.1817
rradius 92.9734
rwrist -55.4098
rhand -47.7573 30.0639
rfingers 7.12502
rthumb -20.4352 1.11927
lclavicle -2.8625e-014 4.77083e-015
lhumerus 54.4528 4.93698 -1.47096
lradius 99.7308
lwrist 88.7839
lhand -23.3882 38.5474
lfingers 7.12502
lthumb 3.06823 68.5051
rfemur -16.0592 4.23048 10.9027
rtibia 20.6855
rfoot -9.01043 -15.2415
rtoes -14.5701
lfemur -14.3293 3.172 -26.0441
ltibia 22.3366
lfoot -16.3045 16.3209
ltoes -10.2495
1338
root 1.54343 18.1104 -0.913257 5.6836 -9.64463 2.08121
lowerback 10.3531 2.79498 1.59011
upperback 7.63463 3.73664 6.2214
thorax 1.86569 1.76921 5.27709
lowerneck 0.35843 -13.9383 -4.30808
upperneck -5.34913 -18.6717 2.09374
head -1.13027 -9.3198 1.42747
rclavicle -1.51076e-014 -3.18055e-014
rhumerus 59.2668 20.5866 -61.3228
rradius 91.9655
rwrist -56.6133
rhand -47.623 29.9105
rfingers 7.12502
rthumb -20.3062 0.95209
lclavicle -1.51076e-014 -3.18055e-014
lhumerus 54.7884 5.18154 -1.89513
lradius 98.5648
lwrist 89.4129
lhand -22.5528 38.582
lfingers 7.12502
lthumb 3.87499 68.5265
rfemur -15.9395 4.38623 10.7517
rtibia 20.25
rfoot -8.84021 -15.271
rtoes -14.6181
lfemur -14.1861 3.16743 -26.1739
ltibia 21.9371
lfoot -16.1466 16.4541
ltoes -10.3435
1339
root 1.55287 18.1198 -0.912561 5.7592 -9.79222 2.01807
lowerback 10.4225 2.76762 1.68453
upperback 7.54983 3.71524 6.27745
thorax 1.74277 1.76176 5.27812
lowerneck 0.518221 -13.8621 -3.95491
upperneck -5.43958 -18.5922 1.6917
head -1.25866 -9.27671 1.28791
rclavicle 1.98785e-014 0
rhumerus 59.5298 20.1267 -61.4912
rradius 91.0434
rwrist -57.7506
rhand -47.3778 29.2093
rfingers 7.12502
rthumb -20.0705 0.225983
lclavicle 1.98785e-014 0
lhumerus 55.1447 5.31517 -2.25119
lradius 97.4128
lwrist 89.9466
lhand -21.6512 38.6514
lfingers 7.12502
lthumb 4.74558 68.5783
rfemur -15.825 4.63448 10.7515
rtibia 19.8407
rfoot -8.67351 -15.3519
rtoes -14.2517
lfemur -14.0643 3.26751 -26.1492
ltibia 21.574
lfoot -15.9783 16.5434
ltoes -10.5508
1340
root 1.56276 18.1267 -0.914797 5.84565 -9.91544 2.02562
lowerback 10.4643 2.72873 1.7458
upperback 7.48297 3.67407 6.28875
thorax 1.65589 1.74381 5.25452
lowerneck 0.589388 -13.7757 -3.81737
upperneck -5.39036 -18.4844 1.52063
head -1.28636 -9.22163 1.22588
rclavicle 1.35174e-014 2.54444e-014
rhumerus 59.7604 19.6526 -61.7548
rradius 90.2437
rwrist -59.0257
rhand -47.2407 28.3538
rfingers 7.12502
rthumb -19.9387 -0.643303
lclavicle 1.35174e-014 2.54444e-014
lhumerus 55.5102 5.50407 -2.66066
lradius 96.2834
lwrist 90.4262
lhand -20.8564 38.651
lfingers 7.12502
lthumb 5.513 68.5593
rfemur -15.7327 4.87151 10.6713
rtibia 19.4329
rfoot -8.52738 -15.4518
rtoes -14.1534
lfemur -14.0077 3.29189 -26.1928
ltibia 21.2563
lfoot -15.8757 16.5883
ltoes -10.265
1341
root 1.57205 18.1306 -0.91462 5.89965 -10.0515 2.11047
lowerback 10.5011 2.70365 1.75801
upperback 7.43249 3.64635 6.26786
thorax 1.58672 1.73137 5.22418
lowerneck 0.765728 -13.7125 -3.85557
upperneck -5.42384 -18.4062 1.54869
head -1.32208 -9.18144 1.25595
rclavicle -6.36111e-015 4.77083e-015
rhumerus 59.9492 19.1822 -62.0293
rradius 89.4425
rwrist -60.2559
rhand -47.5778 28.8153
rfingers 7.12502
rthumb -20.2627 -0.147791
lclavicle -6.36111e-015 4.77083e-015
lhumerus 55.8985 5.74059 -3.06171
lradius 95.2435
lwrist 90.9994
lhand -20.2364 38.6508
lfingers 7.12502
lthumb 6.1116 68.5427
rfemur -15.6276 5.05701 10.5131
rtibia 19.0538
rfoot -8.3268 -15.5049
rtoes -14.3678
lfemur -13.9201 3.31974 -26.3259
ltibia 20.9591
lfoot -15.7716 16.6803
ltoes -10.1032
1342
root 1.58033 18.1353 -0.914249 5.96297 -10.1622 2.15962
lowerback 10.528 2.67963 1.81594
upperback 7.36833 3.62407 6.25678
thorax 1.5103 1.72316 5.17786
lowerneck 1.13446 -13.6527 -3.90159
upperneck -5.60087 -18.3401 1.63913
head -1.42917 -9.14639 1.32926
rclavicle 1.90833e-014 7.95139e-015
rhumerus 60.1125 18.7716 -62.1726
rradius 88.5419
rwrist -61.1823
rhand -47.8661 29.6772
rfingers 7.12502
rthumb -20.5397 0.74372
lclavicle 1.90833e-014 7.95139e-015
lhumerus 56.2914 5.89718 -3.3989
lradius 94.1776
lwrist 91.4504
lhand -19.4356 38.7076
lfingers 7.12502
lthumb 6.88464 68.5757
rfemur -15.5537 5.24531 10.3974
rtibia 18.7334
rfoot -8.16177 -15.5808
rtoes -14.4628
lfemur -13.8302 3.35811 -26.421
ltibia 20.6581
lfoot -15.6203 16.8079
ltoes -10.6628
1343
root 1.58911 18.1414 -0.91514 6.02591 -10.2951 2.27222
lowerback 10.547 2.66685 1.79022
upperback 7.31087 3.60946 6.2442
thorax 1.43959 1.71599 5.17713
lowerneck 1.53146 -13.5884 -3.76476
upperneck -5.88521 -18.2759 1.56269
head -1.60895 -9.11047 1.34029
rclavicle 4.13472e-014 4.29375e-014
rhumerus 60.3068 18.405 -62.2362
rradius 87.621
rwrist -61.9727
rhand -47.425 28.8747
rfingers 7.12502
rthumb -20.1158 -0.103907
lclavicle 4.13472e-014 4.29375e-014
lhumerus 56.6971 6.01163 -3.67566
lradius 93.0702
lwrist 91.8175
lhand -18.4794 38.8417
lfingers 7.12502
lthumb 7.80765 68.6775
rfemur -15.554 5.39942 10.211
rtibia 18.4887
rfoot -8.12098 -15.6147
rtoes -14.0217
lfemur -13.7458 3.40915 -26.5841
ltibia 20.3352
lfoot -15.5355 16.8664
ltoes -10.6321
1344
root 1.60035 18.1469 -0.916516 6.09083 -10.42 2.33713
lowerback 10.5698 2.64486 1.81649
upperback 7.27084 3.58553 6.25781
thorax 1.38766 1.7049 5.17641
lowerneck 1.82844 -13.5417 -3.71912
upperneck -6.0522 -18.23 1.51253
head -1.72369 -9.08399 1.35522
rclavicle -1.19271e-014 -1.27222e-014
rhumerus 60.4871 18.0622 -62.2861
rradius 86.7585
rwrist -62.8767
rhand -46.7836 28.0906
rfingers 7.12502
rthumb -19.4993 -0.951605
lclavicle -1.19271e-014 -1.27222e-014
lhumerus 57.0834 6.14566 -3.96087
lradius 92.034
lwrist 92.2423
lhand -17.6312 38.8168
lfingers 7.12502
lthumb 8.62625 68.6206
rfemur -15.5798 5.54871 10.0752
rtibia 18.296
rfoot -8.05209 -15.6598
rtoes -13.7909
lfemur -13.6725 3.45527 -26.7006
ltibia 20.0251
lfoot -15.4345 16.9065
ltoes -10.4747
